<?xml version="1.0" standalone="no"?>
<!DOCTYPE svg PUBLIC "-//W3C//DTD SVG 20010904//EN"
 "http://www.w3.org/TR/2001/REC-SVG-20010904/DTD/svg10.dtd">
<svg version="1.0" xmlns="http://www.w3.org/2000/svg"
 width="800.000000pt" height="378.000000pt" viewBox="0 0 800.000000 378.000000"
 preserveAspectRatio="xMidYMid meet">

<g transform="translate(0.000000,378.000000) scale(0.100000,-0.100000)"
fill="#000000" stroke="none">
<path d="M1077 3773 c-3 -5 -3 -21 -2 -38 2 -16 8 -113 15 -215 6 -102 15
-194 20 -206 4 -12 4 -27 -1 -35 -5 -8 -8 -53 -8 -100 1 -77 -1 -89 -22 -114
-13 -14 -24 -34 -24 -42 0 -9 -8 -17 -18 -19 -37 -5 -177 -116 -177 -140 0 -6
-9 -20 -20 -32 -11 -12 -19 -25 -18 -29 3 -11 -21 -53 -46 -82 -11 -13 -15
-21 -8 -17 31 18 -5 -31 -110 -149 -157 -178 -253 -286 -326 -370 -47 -55
-142 -162 -209 -239 l-123 -139 0 -868 c0 -478 3 -875 6 -884 3 -8 12 -15 20
-15 8 0 19 -9 26 -20 9 -15 23 -20 53 -20 l40 1 -47 43 c-40 37 -45 46 -33 56
12 10 16 9 21 -4 3 -9 10 -13 15 -10 13 8 11 24 -3 24 -7 0 -20 13 -29 29 -16
27 -16 28 2 24 11 -3 19 -9 19 -14 0 -5 5 -9 11 -9 6 0 18 -9 28 -21 15 -19
18 -19 44 -6 18 9 24 17 15 19 -10 4 -9 10 6 26 14 16 30 21 67 20 46 0 49 -2
57 -31 6 -24 5 -33 -5 -35 -15 -4 -17 -18 -3 -27 16 -10 11 -28 -6 -21 -12 5
-14 1 -9 -15 6 -18 5 -19 -13 -10 -24 13 -48 6 -56 -16 -6 -14 -8 -14 -24 -1
-9 8 -25 18 -34 21 -15 5 -16 3 -6 -18 10 -23 17 -25 80 -25 44 0 67 4 63 10
-3 6 -2 10 4 10 5 0 13 -4 16 -10 4 -7 753 -10 2215 -10 l2209 0 123 30 c188
47 399 70 581 66 84 -3 175 -9 202 -15 28 -6 95 -15 150 -21 55 -5 150 -20
210 -32 109 -23 117 -23 1048 -26 l937 -2 0 1890 0 1890 -676 0 -675 0 7 -22
c10 -31 7 -136 -5 -176 -8 -27 -5 -49 14 -110 34 -105 36 -108 71 -89 99 53
201 82 239 67 25 -10 35 -45 35 -124 0 -65 14 -84 64 -91 21 -2 41 -7 44 -10
3 -2 11 0 18 6 9 7 18 7 31 0 16 -9 15 -10 -9 -11 -16 0 -31 1 -34 3 -3 1 -14
-14 -23 -33 -9 -19 -25 -39 -37 -45 -11 -5 -19 -16 -18 -23 1 -7 0 -8 -3 -2
-2 5 -13 10 -24 10 -13 0 -19 -7 -19 -24 0 -19 -15 -34 -62 -67 -97 -65 -194
-151 -209 -184 -7 -15 -8 -10 -5 18 3 24 1 35 -6 31 -6 -4 -8 1 -3 15 4 13 1
28 -7 38 -7 9 -15 51 -19 94 -6 82 -37 149 -70 149 -25 0 -69 54 -83 101 -14
46 -14 50 -1 195 8 99 7 103 -75 232 l-33 52 -88 0 c-86 0 -89 -1 -89 -22 0
-18 -2 -20 -9 -8 -6 8 -7 18 -5 22 3 4 -105 8 -239 8 l-244 0 -11 -76 c-11
-81 -34 -123 -52 -94 -5 8 -12 11 -16 7 -12 -12 -44 24 -44 50 0 13 11 35 25
48 13 14 20 25 15 25 -15 0 -12 27 3 33 6 3 -40 6 -104 6 l-116 1 -13 -69 c-8
-45 -11 -106 -7 -172 5 -101 5 -103 -21 -131 -15 -15 -31 -28 -36 -28 -19 0
-106 114 -106 141 0 13 -25 39 -38 39 -5 0 -21 9 -36 21 -27 21 -46 18 -46 -7
0 -8 -7 -17 -15 -20 -13 -5 -13 -8 0 -27 8 -12 15 -31 15 -42 0 -12 6 -30 14
-40 10 -14 11 -26 3 -49 -15 -47 -26 -56 -68 -56 -22 0 -39 -4 -39 -9 0 -5
-12 -11 -27 -13 -46 -5 -65 -45 -64 -131 0 -42 2 -82 3 -88 2 -7 -6 -15 -17
-17 -11 -2 -34 -10 -52 -18 -17 -8 -37 -14 -43 -14 -7 0 -1 -9 14 -21 14 -11
26 -24 26 -28 0 -11 -98 -34 -111 -26 -7 5 -9 21 -6 43 14 84 -68 180 -143
165 l-25 -4 -2 -151 c-2 -83 -7 -165 -12 -184 -6 -21 -6 -36 0 -40 5 -3 7 -10
3 -15 -3 -6 -8 -38 -10 -71 -3 -33 -9 -68 -14 -78 -15 -28 -13 -30 19 -24 32
7 47 -15 31 -45 -5 -10 -7 -20 -5 -23 3 -3 6 -34 7 -71 l2 -65 34 -7 c19 -3
37 -3 40 0 4 4 6 41 4 83 -3 87 2 91 16 14 18 -98 -19 -152 -104 -152 -40 0
-91 36 -103 73 -6 18 -18 158 -26 312 -17 310 -22 347 -53 400 -29 47 -28 54
3 25 14 -13 26 -22 26 -19 1 2 3 108 5 234 5 254 2 275 -54 328 -43 42 -133
49 -191 16 -37 -20 -41 -27 -41 -61 0 -21 -4 -38 -10 -38 -16 0 -12 -19 14
-74 21 -43 26 -72 31 -186 4 -74 9 -138 11 -142 2 -3 -2 -9 -8 -11 -10 -4 -10
-6 0 -6 7 -1 22 4 32 9 11 6 30 8 43 5 19 -5 23 -12 19 -34 -2 -15 1 -44 6
-64 6 -23 7 -51 1 -77 -6 -27 -6 -55 1 -82 6 -22 8 -47 4 -57 -5 -9 -8 -59 -8
-112 -1 -92 0 -95 20 -91 20 4 23 -2 33 -70 7 -40 17 -89 23 -109 13 -45 5
-59 -30 -59 -66 0 -88 42 -127 250 -15 74 -31 147 -37 163 -13 34 -45 36 -58
3 -11 -31 -29 -41 -43 -26 -9 9 -7 15 11 27 41 28 23 83 -28 83 -14 0 -31 5
-38 12 -9 9 -13 7 -18 -5 -5 -15 -10 -14 -38 8 -58 44 -70 30 -48 -58 11 -45
12 -64 3 -83 -6 -13 -16 -35 -22 -48 -9 -18 -9 -37 -1 -68 6 -24 8 -55 5 -69
-3 -17 4 -44 20 -75 l26 -49 -6 58 c-4 36 -2 57 4 57 14 0 37 -37 52 -83 7
-21 24 -48 37 -60 40 -37 5 -62 -54 -38 -18 8 -35 11 -38 8 -9 -9 24 -75 80
-157 l55 -82 12 46 c10 40 15 46 44 52 43 8 58 -1 45 -26 -14 -26 -12 -72 5
-93 7 -11 11 -26 8 -35 -5 -13 0 -14 33 -9 74 12 9 -10 -141 -47 -184 -46
-245 -65 -245 -77 0 -17 89 -9 130 12 50 26 84 19 105 -22 24 -46 70 -69 140
-69 33 0 83 -7 110 -15 28 -9 82 -15 120 -15 39 1 86 -3 105 -9 66 -21 205
-40 340 -46 74 -4 161 -13 194 -20 55 -13 62 -12 124 11 35 13 75 24 87 24 18
0 33 16 64 64 50 79 81 110 146 143 62 32 63 32 45 43 -10 7 8 10 55 10 80 0
88 4 180 82 88 74 121 89 232 103 98 13 149 8 199 -18 35 -18 96 -83 118 -125
23 -45 81 -90 175 -136 47 -23 119 -62 159 -86 126 -77 235 -140 242 -140 4 0
14 -8 21 -17 11 -13 5 -12 -24 5 -21 12 -47 22 -58 22 -10 0 -19 4 -19 10 0 5
-25 24 -55 41 -30 17 -58 35 -61 41 -4 6 -10 5 -15 -3 -7 -11 -9 -11 -9 -1 0
7 -4 10 -10 7 -5 -3 -10 0 -10 8 0 16 -27 30 -41 21 -5 -3 -9 1 -9 8 0 11 -66
48 -112 62 -17 5 -32 -19 -22 -35 3 -5 0 -9 -5 -9 -6 0 -11 7 -11 15 0 21 -16
19 -25 -2 -6 -17 -7 -17 -16 0 -12 21 -31 23 -22 1 4 -11 1 -15 -13 -12 -13 2
-18 -2 -15 -12 3 -8 5 -29 6 -46 1 -17 5 -37 10 -44 4 -7 2 -16 -6 -21 -8 -5
-11 -9 -7 -9 4 0 0 -9 -10 -20 -13 -16 -19 -18 -27 -8 -5 7 -16 13 -22 14 -29
2 -32 5 -26 22 7 16 6 16 -11 0 -19 -19 -31 -24 -22 -9 3 5 -4 11 -15 14 -12
3 -18 10 -15 16 4 5 -3 15 -14 21 -15 8 -19 17 -14 32 6 19 6 53 1 118 -2 14
-9 36 -16 50 -8 13 -15 33 -16 45 -1 11 -3 26 -4 33 -2 17 -47 55 -72 59 -19
3 -89 -27 -119 -51 -8 -7 -37 -21 -65 -31 -27 -10 -54 -22 -60 -26 -5 -5 -16
-9 -25 -9 -9 0 -21 -5 -28 -12 -6 -6 -31 -13 -54 -15 -48 -3 -150 -31 -188
-50 -26 -13 -24 -15 25 -17 19 -1 31 -7 33 -18 3 -13 -9 -19 -56 -28 -40 -8
-63 -19 -73 -33 -8 -12 -29 -36 -48 -55 -31 -32 -36 -33 -78 -27 -39 6 -47 4
-60 -14 -8 -12 -41 -35 -73 -51 -33 -17 -65 -40 -71 -52 -16 -31 -26 -36 -55
-30 -15 3 -31 17 -40 35 l-16 30 -84 -6 c-64 -5 -136 1 -297 23 -254 34 -505
72 -710 105 -178 29 -220 31 -238 9 -10 -12 -25 -15 -55 -11 -36 4 -41 2 -37
-12 13 -36 88 -91 123 -91 6 0 28 -16 48 -36 20 -19 32 -35 27 -34 -21 5 -36
0 -30 -10 8 -12 -5 -13 -25 0 -9 6 -17 5 -21 -2 -5 -7 -18 -7 -43 2 -31 10
-41 9 -62 -5 -13 -9 -22 -20 -18 -26 3 -6 -2 -19 -11 -29 -13 -14 -16 -28 -11
-52 12 -63 49 -111 126 -165 41 -29 78 -52 83 -53 4 0 37 -18 73 -40 36 -22
67 -40 69 -40 2 0 99 -47 217 -104 117 -57 242 -117 278 -134 36 -16 113 -53
171 -81 58 -28 121 -54 140 -57 46 -8 215 -94 296 -149 36 -25 70 -45 75 -45
5 0 36 -18 68 -40 33 -22 68 -43 77 -47 28 -10 117 -66 125 -77 12 -18 9 -53
-6 -65 -8 -6 -29 -14 -48 -16 -19 -2 -54 -13 -79 -24 -25 -12 -66 -21 -94 -21
-27 0 -63 -7 -80 -16 -16 -9 -64 -20 -105 -26 -44 -5 -82 -16 -93 -26 -11 -10
-46 -19 -93 -23 -49 -5 -86 -15 -109 -29 -21 -13 -51 -22 -73 -22 -49 1 -136
-24 -152 -44 -9 -9 -27 -15 -49 -13 -60 3 -71 0 -100 -30 -37 -38 -79 -42
-115 -13 -16 12 -35 22 -42 22 -8 0 -14 7 -14 16 0 29 -25 44 -64 37 -20 -3
-36 -9 -36 -14 0 -10 33 -21 51 -16 8 2 11 2 6 0 -4 -3 -7 -10 -7 -17 0 -12
10 -21 63 -59 17 -12 15 -16 -21 -73 -28 -43 -49 -65 -72 -72 -31 -11 -36 -8
-190 101 -168 119 -418 302 -460 336 -37 31 -153 120 -345 266 -154 117 -404
307 -618 473 -45 34 -106 78 -134 98 -49 32 -53 38 -53 74 0 60 20 74 121 83
26 2 67 15 92 27 42 21 50 22 85 11 34 -11 43 -11 71 4 18 9 54 20 79 25 26 5
81 18 122 30 41 13 118 31 170 41 171 32 293 64 298 77 2 8 -8 12 -30 13 -19
1 -25 3 -13 6 35 7 65 26 65 40 0 7 9 13 19 13 11 0 23 5 27 11 3 6 16 8 28 5
11 -2 30 2 40 10 11 8 27 14 36 14 26 0 48 35 67 105 21 78 13 109 -37 143
-30 20 -42 22 -85 16 -87 -12 -217 -62 -249 -96 -35 -38 -91 -68 -127 -68 -36
0 -118 47 -131 76 -19 40 -52 31 -86 -24 -16 -26 -35 -54 -43 -62 -8 -8 -22
-31 -32 -50 -24 -49 -124 -190 -158 -222 -16 -16 -38 -28 -49 -28 -11 0 -20
-4 -20 -9 0 -5 -8 -8 -17 -6 -10 2 -23 4 -29 4 -6 1 -27 14 -47 29 -44 35 -66
38 -307 35 -174 -2 -187 -1 -198 17 -10 17 -7 23 22 45 18 14 39 25 46 25 12
0 120 49 130 60 16 16 81 59 117 78 23 11 50 25 60 31 10 5 38 19 63 31 87 42
102 89 44 140 -47 41 -55 39 -226 -43 -221 -107 -228 -109 -305 -115 -52 -3
-73 -1 -73 7 0 18 -32 48 -55 53 -12 2 -27 -5 -37 -17 -13 -17 -29 -22 -73
-23 -31 -1 -60 -4 -65 -7 -15 -9 -40 -67 -34 -77 8 -13 -26 -148 -38 -148 -5
0 -16 -7 -24 -15 -18 -18 -11 -19 18 -4 18 10 20 9 15 -5 -4 -10 -3 -15 3 -11
5 3 17 2 26 -3 11 -6 13 -11 5 -16 -6 -4 -11 -2 -11 5 0 7 -11 2 -25 -11 l-25
-23 0 21 c0 13 -6 22 -15 22 -8 0 -15 4 -15 8 0 4 -33 14 -74 21 -41 6 -79 18
-85 25 -6 7 -23 11 -41 8 -16 -2 -38 -1 -47 3 -10 4 -36 10 -58 12 -22 3 -42
6 -44 9 -8 8 34 33 56 34 12 0 24 4 27 8 2 4 28 9 56 10 64 3 76 9 145 77 30
30 63 55 73 55 40 1 45 14 46 127 l1 109 37 39 c41 44 17 41 258 34 76 -2 108
2 159 19 74 25 166 30 266 12 95 -16 268 -16 392 0 l102 13 50 -42 c35 -29 54
-55 62 -82 7 -21 20 -47 30 -58 19 -20 20 -20 101 23 46 24 127 58 180 76 154
50 171 71 174 207 2 75 6 98 23 122 46 64 115 65 300 6 73 -23 128 -48 152
-67 44 -35 76 -33 64 5 -23 72 -35 125 -35 149 0 16 -13 53 -29 83 -40 74 -50
168 -27 241 9 30 26 60 37 68 20 13 17 15 -38 26 -32 6 -84 20 -116 31 -33 11
-82 24 -110 30 -29 6 -62 17 -74 25 -12 8 -31 14 -43 14 -11 0 -20 5 -20 10 0
6 -6 10 -13 10 -14 0 -67 51 -67 64 0 4 -11 22 -23 39 -13 18 -24 41 -25 52
-4 62 -20 107 -68 199 -29 57 -51 106 -48 109 11 10 22 77 13 77 -5 0 -12 18
-15 40 l-7 40 -1053 0 c-579 0 -1055 -3 -1057 -7z m5159 -102 c-3 -5 1 -22 9
-37 26 -51 23 -65 -42 -179 -9 -16 -19 -50 -22 -75 -6 -41 -10 -47 -50 -67
-33 -17 -48 -20 -58 -12 -21 18 -15 45 27 126 22 43 40 83 40 90 0 7 4 21 8
31 46 95 68 132 80 132 7 0 11 -4 8 -9z m-3727 -307 c31 -40 46 -123 31 -176
-7 -24 -15 -77 -19 -118 -8 -89 -15 -103 -47 -97 -12 2 -28 0 -36 -4 -7 -4
-18 -3 -25 3 -7 6 -13 8 -13 4 0 -3 -9 3 -21 15 -15 15 -19 29 -16 47 3 15 8
43 12 62 5 27 1 49 -20 93 -41 91 -22 168 48 189 50 14 85 9 106 -18z m4696
-64 c-27 -12 -35 -12 -35 0 0 6 12 10 28 9 24 0 25 -1 7 -9z m-45 -20 c0 -5
-4 -10 -10 -10 -5 0 -10 5 -10 10 0 6 5 10 10 10 6 0 10 -4 10 -10z m-1011
-172 c11 -36 11 -45 -13 -168 -33 -169 -37 -185 -54 -208 -15 -20 -22 -22 -44
-13 -23 9 -27 18 -33 66 -8 64 14 163 40 178 8 4 13 12 10 17 -3 5 0 20 6 32
7 13 12 37 10 54 -2 24 4 37 25 53 35 28 41 27 53 -11z m-4536 -12 c21 -4 41
-14 44 -21 3 -10 13 -13 27 -9 14 3 27 -1 35 -10 17 -20 45 -20 61 -1 9 10 27
13 66 10 30 -2 58 -6 63 -10 5 -3 11 1 13 7 3 8 10 4 17 -11 8 -13 8 -21 2
-17 -5 4 -19 -2 -29 -12 -26 -26 -118 -50 -133 -35 -9 9 -17 8 -33 -2 -11 -7
-38 -16 -59 -19 -21 -4 -54 -18 -73 -31 -27 -19 -41 -22 -54 -15 -27 14 -40
12 -40 -6 0 -10 -5 -12 -12 -7 -21 12 -39 15 -128 19 -140 6 -149 11 -129 71
19 53 45 72 99 73 25 0 70 7 100 16 30 8 63 17 74 19 10 2 21 7 24 10 3 2 10
1 16 -4 6 -5 28 -11 49 -15z m1777 -165 c0 -28 -5 -53 -10 -56 -16 -10 -75 28
-78 51 -2 14 8 24 35 36 54 23 53 23 53 -31z m1515 28 c11 -17 -1 -21 -15 -4
-8 9 -8 15 -2 15 6 0 14 -5 17 -11z m72 -51 c21 -19 31 -48 18 -48 -13 0 -85
51 -85 60 0 18 43 10 67 -12z m2335 -44 c-3 -31 -12 -47 -48 -81 -25 -24 -52
-43 -59 -43 -7 0 -18 -7 -25 -15 -7 -8 -21 -15 -31 -15 -11 0 -18 -4 -16 -9 1
-5 -9 -19 -23 -31 -24 -21 -24 -22 -6 -35 17 -13 17 -15 1 -31 -9 -9 -27 -33
-40 -53 -42 -63 -130 -166 -146 -169 -9 -1 -20 8 -26 21 -9 20 -6 33 16 78 50
99 76 138 98 150 13 7 25 20 28 30 3 9 19 34 35 54 17 21 30 44 30 51 0 7 14
27 30 44 25 26 33 29 50 20 18 -10 27 -5 67 35 26 25 52 44 57 42 6 -2 10 -22
8 -43z m-5722 26 c0 -5 -2 -10 -4 -10 -3 0 -8 5 -11 10 -3 6 -1 10 4 10 6 0
11 -4 11 -10z m1213 -30 c14 -12 -4 -60 -28 -76 -16 -10 -21 -21 -17 -36 4
-15 1 -19 -9 -16 -8 3 -13 11 -11 18 2 7 -6 19 -18 27 -43 30 -3 109 49 97 14
-4 30 -10 34 -14z m1964 -272 c-2 -24 -4 -7 -4 37 0 44 2 63 4 43 2 -21 2 -57
0 -80z m-3366 82 c21 0 39 -5 39 -11 0 -6 -17 -9 -42 -7 -34 2 -43 7 -45 23
-2 11 0 14 3 8 3 -7 23 -13 45 -13z m3700 -61 c1 -24 -3 -55 -10 -68 -9 -16
-12 -48 -8 -100 5 -77 -12 -213 -32 -250 -16 -30 -14 -37 19 -51 36 -15 40
-47 8 -55 -22 -5 -163 -32 -218 -41 -30 -5 -60 19 -84 64 -18 34 -14 52 10 52
18 0 18 54 -1 95 -7 17 -14 25 -14 18 -1 -8 -7 -8 -26 0 -31 15 -31 21 0 35
14 6 25 16 25 21 0 9 7 9 47 -4 18 -6 21 -13 17 -39 l-5 -31 15 32 c21 46 58
68 88 52 14 -8 18 -14 10 -17 -15 -5 -16 -34 -1 -49 6 -6 11 -27 11 -47 0 -44
7 -49 42 -31 16 8 32 13 36 10 9 -6 17 49 26 191 4 76 3 106 -7 122 -12 18
-10 31 11 92 26 75 37 75 41 -1z m906 -1 c-3 -8 -6 -5 -6 6 -1 11 2 17 5 13 3
-3 4 -12 1 -19z m18 -28 c-3 -5 -11 -10 -16 -10 -6 0 -7 5 -4 10 3 6 11 10 16
10 6 0 7 -4 4 -10z m-631 -51 c17 -19 26 -42 25 -62 0 -32 -1 -32 -20 13 -11
25 -27 53 -36 62 -9 10 -11 18 -5 18 5 0 22 -14 36 -31z m-991 -224 c-1 -82
-4 -101 -19 -112 -28 -21 -38 -15 -63 39 -22 47 -23 54 -11 107 16 72 23 80
63 72 l32 -7 -2 -99z m387 55 c0 -5 -4 -10 -10 -10 -5 0 -10 5 -10 10 0 6 5
10 10 10 6 0 10 -4 10 -10z m1280 -310 c-15 -47 -22 -49 -45 -14 -19 29 -8 50
28 56 31 5 32 3 17 -42z m-355 -108 c0 -18 -20 -15 -23 4 -3 10 1 15 10 12 7
-3 13 -10 13 -16z m-59 -17 c9 -22 -4 -63 -24 -81 -45 -40 -88 -74 -94 -74 -4
0 -15 11 -24 25 -23 36 -4 76 54 114 52 34 80 39 88 16z m792 -90 c-7 -16 -15
-22 -21 -16 -13 13 -1 41 17 41 13 0 14 -4 4 -25z m667 -103 c-3 -3 -11 0 -18
7 -9 10 -8 11 6 5 10 -3 15 -9 12 -12z m-2727 -123 c66 -20 73 -25 68 -45 -7
-27 22 -48 107 -76 34 -11 91 -35 127 -53 36 -17 110 -47 165 -65 55 -18 93
-35 85 -38 -8 -3 -19 -11 -23 -18 -4 -8 -14 -14 -21 -14 -9 0 -13 -11 -12 -33
1 -27 -2 -33 -15 -30 -9 3 -20 0 -23 -6 -5 -7 2 -11 16 -11 18 0 20 -2 8 -10
-12 -7 -12 -10 -1 -10 8 0 11 -6 7 -16 -3 -8 -2 -13 3 -9 10 6 43 -20 96 -74
32 -32 56 -103 41 -118 -3 -4 -6 1 -6 10 0 21 -16 22 -24 2 -3 -8 -16 -15 -28
-15 -19 0 -20 2 -8 10 12 8 11 10 -7 10 -13 0 -23 -4 -23 -10 0 -10 -39 5 -78
30 -31 19 -63 83 -63 123 0 18 -6 42 -12 55 -8 18 -8 28 2 44 7 11 9 23 5 26
-4 4 -9 1 -11 -6 -4 -11 -8 -10 -22 1 -9 8 -33 17 -53 20 -20 3 -52 12 -70 20
-18 9 -51 21 -73 28 -66 20 -86 32 -144 85 -31 28 -69 58 -86 67 -51 28 -103
80 -119 121 l-16 39 67 -6 c38 -3 101 -15 141 -28z m-3623 -199 c0 -33 35 -41
187 -41 l128 1 36 -32 c31 -27 35 -36 31 -64 -6 -34 -132 -341 -198 -480 -10
-23 -19 -45 -19 -49 0 -19 -72 -164 -128 -259 -18 -30 -35 -65 -37 -78 -10
-48 -21 -51 -218 -52 -159 -1 -187 1 -203 16 -11 9 -32 20 -48 24 -16 4 -41
20 -56 35 -15 16 -34 29 -41 29 -8 0 -22 8 -30 18 -13 16 -14 25 -4 59 7 23
22 56 33 75 11 18 88 159 170 313 200 373 214 396 253 423 19 13 39 37 44 53
13 39 29 48 68 40 25 -5 32 -12 32 -31z m4384 -160 c23 -22 38 -40 31 -40 -14
0 -99 79 -85 80 6 0 30 -18 54 -40z m-2229 -660 c16 -11 41 -23 57 -26 43 -9
71 -37 79 -79 6 -34 5 -37 -10 -32 -10 4 -22 7 -27 7 -12 0 -79 66 -79 78 0 5
-12 15 -27 23 -30 15 -53 34 -53 43 0 13 34 5 60 -14z m-2760 -464 c-10 -11
-32 2 -25 15 4 5 -1 9 -10 9 -9 0 -13 5 -10 10 4 6 15 3 30 -7 13 -10 20 -22
15 -27z m2796 -80 c19 -19 18 -26 -5 -26 -19 0 -35 23 -24 34 9 9 13 8 29 -8z"/>
<path d="M4312 2570 c0 -14 2 -19 5 -12 2 6 2 18 0 25 -3 6 -5 1 -5 -13z"/>
</g>
</svg>
